<svg xmlns="http://www.w3.org/2000/svg" 
	xmlns:xlink="http://www.w3.org/1999/xlink" 
	version="1.0" 
	id="katman_1" 
	x="0px" 
	y="0px" 
	viewBox="0 0 1190.55 841.89" 
	style="enable-background:new 0 0 1190.55 841.89;" 
	xml:space="preserve"
>
<g>
	<path d="M174.2,353.04c-2.31,1.37-4.64,4.1-5.11,6.87c-0.47,3.42,0.93,6.4,3.47,8.45c7.65,5.5,15.32,10.96,22.99,16.46v3.42   l-1.87-1.14l-26-17.37c-3.27-2.51-6.97-5.73-6.04-10.32c0.47-2.28,2.1-4.33,4.41-5.24C168.39,353.04,171.42,352.55,174.2,353.04"/>
	<path d="M341.46,212.27v58.84h-26.18v-58.84h-45.96v58.84h-26.15v-58.84h-45.96v58.84h-26.18v-58.84H125.1v67.99h9.88v-58.84h26.18   v58.84h45.96v-58.84h26.15v58.84h45.93v-58.84h26.18v58.84h45.96v-58.84h26.18v58.84h9.88v-67.99H341.46"/>
	<path d="M220.05,430.34c-1.17-4.15-3.47-8.24-6.97-10.99c-9.75,2.31-19.73,4.59-29.47,7.1c-1.43,0.47-2.57,1.11-3.97,1.61   c3.71-7.34,3.24-18.3-2.07-24.7l-21.36,17.83c5.57,7.54,10.91,15.34,16.46,22.86c1.63,1.84,3.97,2.51,6.04,3.42l32.97,5.29   l8.81,1.35v-18.97L220.05,430.34"/>
	<path d="M169.09,395.66c-1.09-0.49-3.58-1.71-3.58-1.71c2.05,3.14,4.1,6.07,6.14,8.74l3.11-2.59   C173.37,398.07,169.97,396.1,169.09,395.66"/>
	<path d="M160.85,398.07c1.81,2.9,4.1,5.65,6.14,8.55l3.5-2.93C168.18,400.37,164.06,399.88,160.85,398.07"/>
	<path d="M165.95,407.45c-2.31-3.63-6.27-4.12-9.51-5.7c1.81,2.93,3.89,5.83,6.14,8.55l3.34-2.75   C165.93,407.5,165.95,407.48,165.95,407.45"/>
	<path d="M151.8,405.38c1.84,2.9,4.1,5.83,6.14,8.74l3.5-2.9C158.9,407.86,155.02,406.96,151.8,405.38"/>
	<path d="M147.6,409.26l5.91,8.55l3.53-2.93C154.73,411.75,151.05,410.43,147.6,409.26"/>
	<path d="M249.86,501.02l10.58,1.53l0.18-4.2C256.6,497.86,253.23,500.11,249.86,501.02"/>
	<path d="M258.7,503.98c-3.5,0-5.81,2.28-8.81,3.21c3.14,0.44,6.71,1.09,10.29,1.32l0.21-4.54H258.7"/>
	<path d="M253.33,511.08l-3.94,1.81l10.52,1.32l0.18-4.3C257.71,509.73,255.33,509.99,253.33,511.08"/>
	<path d="M248.95,518.6l10.76,1.35l0.18-4.33C255.79,515.02,252.58,517.25,248.95,518.6"/>
	<path d="M248.95,524.09c3.37,0.67,6.95,1.11,10.52,1.56l0.16-4.33C255.56,520.75,252.37,522.74,248.95,524.09"/>
	<path d="M192.06,464.86c3.53,0.41,7.1,0.88,10.65,1.32l0.13-4.12C198.82,461.57,195.45,463.75,192.06,464.86"/>
	<path d="M191.82,470.82l10.65,1.32l0.16-4.35C198.61,467.3,195.22,469.48,191.82,470.82"/>
	<path d="M200.43,473.55c-3.27,0.23-5.81,1.81-8.81,2.95c3.63,0.67,7.26,1.11,10.68,1.37l0.16-4.33H200.43"/>
	<path d="M200.19,479.27c-3.47,0-5.81,2.28-8.84,2.98l9.51,1.37l1.17,0.18l0.18-4.54H200.19"/>
	<path d="M191.36,487.96l10.5,1.35l0.13-4.15C197.97,484.38,194.54,486.38,191.36,487.96"/>
	<path d="M299.65,556.75l6.69-8.35l-3.55-2.28C300.14,548.9,300.56,553.15,299.65,556.75"/>
	<path d="M304.99,559.94c2.07-2.67,4.56-5.62,6.4-8.32l-3.81-2.44C305.04,551.95,305.87,556.39,304.99,559.94"/>
	<path d="M309.84,562.92c2.05-2.49,4.56-5.39,6.61-8.06l-3.94-2.51C310.12,555.27,310.56,559.32,309.84,562.92"/>
	<path d="M314.5,566.37c2.26-2.88,4.72-5.57,6.79-8.42l-3.84-2.46C315,558.43,315.44,562.5,314.5,566.37"/>
	<path d="M319.64,569.11l6.58-8.06l-3.68-2.36C320.08,561.44,319.64,565.49,319.64,569.11"/>
	<path d="M341.43,474.01l0.7,0.44c3.24,0.91,6.48,1.61,9.75,1.81l-0.44-0.93l-1.63-12.8c-0.47-7.31-7.41-12.1-12.99-15.99   l-67.08-44.87c-1.61-0.91-3.01-2.02-4.87-2.28c1.17-0.91,1.84-2.28,1.84-3.63c0-2.07-1.37-3.91-3.21-4.85l-19.52-10.26   c-1.63-0.93-3.47-1.11-5.34-1.37l1.4-0.91c1.17-0.93,1.66-2.05,1.94-3.47c0.44-2.54,0.13-4.77-1.48-6.82   c-1.63-1.84-3.32-3.11-7.08-2.67c-2.23,0.31-4.17,1.61-5.24,4.74c-0.47,1.37-0.23,3.21,0,4.35c-0.7-0.93-0.7-2.07-1.63-2.75   c-4.64-2.51-9.05-5.03-13.45-7.1c-1.17-0.7-2.54-0.91-3.47-0.23c-1.17,0.67-1.4,2.05-1.87,3.21l-0.67-0.96   c-9.31-5.24-18.82-10.24-28.1-15.29c0.7,0.91,1.61,1.84,1.87,3.19l0.23,13.25c5.57,4.15,11.61,7.57,17.16,11.9   c1.17,0.67,1.87,1.84,2.33,3.21c0.67,2.05,0.21,4.56-0.93,6.19c-1.43,1.61-3.03,2.95-5.37,2.51c-4.87-1.87-9.05-5.29-13.22-8.68   c0,2.95,0,6.19,0.23,9.38l36.68,25.17c4.41,4.12,6.74,9.15,7.44,14.85l-0.03,33.18v6.17l1.17,5.7c-2.8-4.56-7.21-9.36-12.08-11.9   c-2.31-0.91-4.64-2.28-7.21-2.51c-0.08,3.16-0.21,6.35-0.36,9.54l-0.57,15.16c0,0.91-0.03,1.81-0.03,2.72l22.52,3.42   c2.57,0.23,5.81,0.93,7.44-1.14l25.76-34.09h0.23c-0.23,0.93-0.96,1.61-0.96,2.51l5.11,0.65l1.61-0.91   c-1.61,2.28-3.24,4.59-4.38,7.1c-1.63,4.35-1.17,9.85,1.37,13.74l20.17,32.27v0.44l-3.01-4.15c-4.43-5.94-10.65-9.38-17.16-11.4   l-0.7,15.14l-0.44,10.89l-0.08,1.63l25.61,3.42l2.07-0.21c1.43-0.47,2.33-1.84,3.03-3.24l8.81-21.02c-2.1-3.21-3.94-6.4-5.57-9.59   c-3.01-6.19-4.41-14.18-2.28-21.28l0.21-1.14l-14.59-8.48l-1.87-1.37l19.28,3.42c1.61,0.47,3.71,0.23,4.87-0.7   c-2.1,3.89-3.42,7.49-4.12,12.29c-0.91,8.94,3.5,15.79,7.18,22.89l16.25,26.05c2.31,3.65,5.96,5.11,9.88,6.48h-0.23   c-5.34-1.61-12.31-1.84-17.63,0.23c-3.94,1.61-7.41,4.77-9.69,8.4l23.41,14.88l11.59-14.36c3.01-4.35,7.67-7.8,7.67-13.48   l-5.57-53.08C342.13,475.59,341.43,474.89,341.43,474.01 M213,379.07c-2.1,0-3.78-1.68-3.78-3.73c0-2.05,1.71-3.73,3.78-3.73   c2.1,0,3.81,1.68,3.81,3.73C216.81,377.38,215.1,379.07,213,379.07z"/>
	<path d="M125,310.25v189.17c0,71.31,58.89,129.32,131.29,129.32s131.26-58.01,131.26-129.32V310.25H125 M377.88,435.16   L202.11,319.81h175.77V435.16z M134.72,499.41v-31.86l193.16,128.44c-20.11,14.52-44.79,23.17-71.57,23.17   C189.26,619.19,134.72,565.46,134.72,499.41L134.72,499.41z M335.68,589.9L134.69,456.26V319.81h50.23l192.92,126.59v53.01   C377.88,535.55,361.47,567.92,335.68,589.9L335.68,589.9z"/>
	<path d="M496.72,543.82c0,3.76-0.23,15.16,14.72,15.16c9.43,0,15.4-4.43,15.4-11.17c0-7.1-5.05-8.29-15.4-10.73   c-19.28-4.77-29.86-10.39-29.86-24.21c0-13.17,9.56-24.75,32.14-24.75c8.42,0,18.4,1.87,24.47,9.38   c4.61,5.75,4.61,12.13,4.61,14.83h-16.74c-0.23-2.75-1.11-12.18-13.14-12.18c-8.06,0-13.32,4.33-13.32,10.86   c0,7.39,5.91,8.76,17.6,11.61c14.02,3.34,27.84,7.1,27.84,22.65c0,14.39-12.1,26-34.55,26c-31.1,0-31.34-19.67-31.42-27.42h17.65"/>
	<path d="M593.69,568.6c-5.37,1.43-10.21,1.76-12.88,1.76c-16.74,0-16.74-10.37-16.74-15.01v-30.64h-10.89v-10.83h10.89v-10.96   l16.49-5.94v16.93h13.48v10.83h-13.48v25.22c0.13,5.08,0.13,8.27,7.54,8.27c2.46,0,3.58-0.1,5.6-0.31V568.6"/>
	<path d="M641.18,569.37c-0.57-3.42-0.57-5.96-0.57-7.62c-6.27,8.94-13.79,8.94-16.95,8.94c-8.16,0-11.87-2.33-14.13-4.41   c-3.37-3.34-4.95-7.85-4.95-12.29s1.58-12.6,12-17.37c6.97-3.08,16.98-3.08,22.45-3.08c0-3.65-0.1-5.42-0.8-7.41   c-1.45-4.1-5.81-4.64-7.39-4.64c-2.38,0-4.85,1.01-6.3,3.11c-1.24,1.89-1.24,3.63-1.24,4.98h-16.23c0.1-3.01,0.44-8.94,6.4-13.17   c5.16-3.65,11.79-4.51,17.16-4.51c4.72,0,14.59,0.75,20.19,7.18c3.81,4.54,3.94,11.17,3.94,13.71l0.1,22.42   c0,4.77,0.36,9.51,1.35,14.15L641.18,569.37 M620.75,552.11c0,3.76,2.57,7.96,8.06,7.96c3.03,0,5.52-1.45,7.08-3.24   c2.9-3.5,3.16-7.85,3.16-13.82C628.4,542.16,620.75,545.47,620.75,552.11z"/>
	<path d="M710.18,489.54h16.72v70.76c0,3.32,0.26,6.97,0.44,9.07h-16.85l-0.44-8.06c-1.11,1.97-2.23,4.1-5.7,6.3   c-4.17,2.67-8.53,2.88-10.99,2.88c-15.16,0-24.16-10.26-24.16-27.73c0-18.48,10.24-29.96,25.07-29.96   c10.19,0,14.46,5.62,15.92,7.62L710.18,489.54 M697.48,559.83c4.85,0,8.76-2.85,10.58-6.3c2.46-4.64,2.7-10.37,2.7-13.17   c0-10.96-4.85-16.93-12.39-16.93c-11.07,0-12.34,13.17-12.34,18.79C686.05,551.57,689.21,559.83,697.48,559.83z"/>
	<path d="M777.75,568.6c-5.39,1.43-10.21,1.76-12.91,1.76c-16.72,0-16.72-10.37-16.72-15.01v-30.64h-10.89v-10.83h10.89v-10.96   l16.49-5.94v16.93h13.45v10.83h-13.45v25.22c0.1,5.08,0.1,8.27,7.54,8.27c2.46,0,3.55-0.1,5.6-0.31L777.75,568.6"/>
	<path d="M825.91,489.54h30.33c4.69,0,13.79,0,19.96,3.78c7.41,4.61,9.1,12.39,9.1,17c0,3.01-0.57,8.19-4.69,11.95   c-0.57,0.65-4.51,4.23-9.23,5.42v0.23c12.36,2.2,17.16,11.04,17.16,19.44c0,9.41-5.6,15.68-11.87,18.79   c-6.3,3.21-17.29,3.21-20.43,3.21h-30.33L825.91,489.54 M842.55,522.04h12.08c4.95,0,13.95,0,13.95-10.26   c0-9.98-8.53-9.98-14.23-9.98h-11.77v20.24 M842.55,556.54h11.77c7.96,0,16.93,0,16.93-10.73c0-11.38-10.42-11.38-18.71-11.38   h-9.98V556.54z"/>
	<path d="M916.92,545.6c0,3.63,0,14.9,11.59,14.9c4.17,0,8.27-1.53,9.88-7.72h15.14c-0.21,2.62-0.78,7.39-5.37,12.13   c-4.15,4.3-11.59,6.53-19.91,6.53c-4.82,0-14.05-0.91-19.96-6.97c-5.16-5.31-7.31-12.83-7.31-21.77c0-9.07,2.26-19.91,11.77-26.41   c4.38-2.88,9.77-4.67,15.97-4.67c8.04,0,17.73,3.08,22.89,13.5c3.81,7.62,3.58,15.81,3.37,20.45h-38.05 M938.02,535.31   c0-2.54-0.21-12.49-9.88-12.49c-7.28,0-10.32,5.96-10.65,12.49H938.02L938.02,535.31z"/>
	<path d="M969.09,527.23c0-2.64-0.44-10.73-0.78-13.92h15.6l0.36,10.71c2.1-4.77,5.81-11.51,19.31-10.83v14.72   c-16.85-1.56-17.88,6.97-17.88,13.92v27.55H969.1L969.09,527.23"/>
	<path d="M1011.66,523.47c0-0.23,0-6.3-0.36-10.16h15.94l0.47,8.4c1.58-2.54,6.07-9.75,18.46-9.75c11.07,0,15.79,6.66,17.24,10.52   c1.24,3.42,1.61,6.3,1.61,16.69v30.17h-16.98v-34.71c0-2.33,0-4.3-0.91-6.09c-1.22-2.44-3.84-4.77-8.09-4.77   c-3.55,0-6.82,1.66-8.63,4.35c-1.01,1.43-2.02,4.17-2.02,8.5v32.74h-16.72L1011.66,523.47"/>
</g>
</svg>